<svg enable-background="new 0 0 128 128" viewBox="0 0 128 128" xmlns="http://www.w3.org/2000/svg" xmlns:xlink="http://www.w3.org/1999/xlink"><linearGradient id="a"><stop offset=".3599" stop-color="#945d4f"/><stop offset=".7899" stop-color="#66352a"/></linearGradient><linearGradient id="b" gradientUnits="userSpaceOnUse" x1="25.915" x2="103.91" xlink:href="#a" y1="26.112" y2="103.11"/><clipPath id="c"><path d="m115.68 11.9c-10.1-9.18-57.09-17.19-89.37 17.47s-20.52 80.5-10.41 89.68c10.1 9.17 58.82 7.5 85.62-21.29 26.81-28.78 24.26-76.68 14.16-85.86z"/></clipPath><linearGradient id="d"><stop offset=".2078" stop-color="#f5f5f5"/><stop offset=".554" stop-color="#e0e0e0"/></linearGradient><linearGradient id="e" gradientUnits="userSpaceOnUse" x1="77.657" x2="115.81" xlink:href="#d" y1="8.0459" y2="46.203"/><linearGradient id="f" gradientUnits="userSpaceOnUse" x1="9.1518" x2="47.309" xlink:href="#d" y1="76.551" y2="114.71"/><linearGradient id="g"><stop offset=".331" stop-color="#efebe9"/><stop offset="1" stop-color="#bdaaa4"/></linearGradient><linearGradient id="h" gradientTransform="matrix(.9976 .0693 -.0693 .9976 6.5495 -3.707)" gradientUnits="userSpaceOnUse" x1="45.851" x2="71.513" xlink:href="#g" y1="75.443" y2="101.1"/><linearGradient id="i" gradientTransform="matrix(.9996 .027 -.027 .9996 2.2406 -1.8088)" gradientUnits="userSpaceOnUse" x1="57.213" x2="82.875" xlink:href="#g" y1="65.975" y2="91.637"/><linearGradient id="j" gradientTransform="matrix(.9978 -.0663 .0663 .9978 -4.4427 5.4716)" gradientUnits="userSpaceOnUse" x1="68.337" x2="93.999" xlink:href="#g" y1="54.229" y2="79.891"/><linearGradient id="k" gradientTransform="matrix(.9951 -.0985 .0985 .9951 -5.4787 9.1213)" gradientUnits="userSpaceOnUse" x1="78.401" x2="104.06" xlink:href="#g" y1="42.374" y2="68.035"/><linearGradient id="l" gradientUnits="userSpaceOnUse" x1="80.608" x2="134.42" xlink:href="#a" y1="-88.893" y2="-35.083"/><clipPath id="m"><path d="m159.55-106.74c-.31-2.79-2.51-4.99-5.3-5.3-13.8-1.53-50.79.16-73.71 23.08-22.92 22.91-24.62 59.91-23.09 73.7.31 2.79 2.51 4.99 5.3 5.3 13.8 1.53 50.79-.16 73.71-23.08 22.92-22.91 24.62-59.91 23.09-73.7z"/></clipPath><linearGradient id="n" gradientUnits="userSpaceOnUse" x1="123.65" x2="158.28" xlink:href="#d" y1="-114.65" y2="-80.024"/><linearGradient id="o" gradientUnits="userSpaceOnUse" x1="55.17" x2="89.798" xlink:href="#d" y1="-46.172" y2="-11.544"/><linearGradient id="p" gradientUnits="userSpaceOnUse" x1="79.331" x2="104.99" xlink:href="#g" y1="-59.582" y2="-33.92"/><linearGradient id="q" gradientUnits="userSpaceOnUse" x1="89.971" x2="115.63" xlink:href="#g" y1="-70.222" y2="-44.56"/><linearGradient id="r" gradientUnits="userSpaceOnUse" x1="100.61" x2="126.27" xlink:href="#g" y1="-80.863" y2="-55.201"/><linearGradient id="s" gradientUnits="userSpaceOnUse" x1="111.25" x2="136.91" xlink:href="#g" y1="-91.503" y2="-65.841"/><path d="m115.68 11.9c-10.1-9.18-57.09-17.19-89.37 17.47s-20.52 80.5-10.41 89.68c10.1 9.17 58.82 7.5 85.62-21.29 26.81-28.78 24.26-76.68 14.16-85.86z" fill="url(#b)"/><g clip-path="url(#c)"><path d="m123.62 63.63c-2.14 0-2 1.44-2.74-.71-8.05-23.17-30.28-45.88-51.93-53.72l-7.44-3.27c-2.76-1.28.96-2.46 2.24-5.22s4.56-3.96 7.32-2.67l2.53 1.16c24.75 11.51 44.31 31.66 55.08 56.74 1.2 2.8-.09 6.04-2.89 7.24-.71.31-1.45.45-2.17.45z" fill="url(#e)"/></g><g clip-path="url(#c)"><path d="m59.01 128.23c-.71 0-1.43-.14-2.12-.43-25.43-10.63-45.58-30.36-56.74-55.57l-1.05-2.38c-1.23-2.78.03-6.04 2.81-7.27s4.2-5.28 5.43-2.5l2.89 7.69c10.01 22.62 28.09 40.33 50.91 49.87 2.81 1.17 4.13 4.4 2.96 7.21-.89 2.11-2.94 3.38-5.09 3.38z" fill="url(#f)"/></g><path clip-path="url(#c)" d="m117.75 11.5s-14 30.25-42.75 61.75-60 48.5-60 48.5" fill="none" stroke="#212121" stroke-miterlimit="10" stroke-width="4"/><path d="m49 97.5s15-11.25 28-24.75c12.75-13.25 20.25-26.25 20.25-26.25" style="fill:none;stroke:#eceff0;stroke-linecap:round;stroke-linejoin:round;stroke-miterlimit:10;stroke-width:6"/><path d="m65.89 100.14c-.89-.06-1.76-.47-2.4-1.19l-12.3-14.14c-1.27-1.46-1.12-3.67.34-4.94s3.67-1.12 4.94.34l12.3 14.14c1.27 1.46 1.12 3.67-.34 4.94-.73.63-1.65.91-2.54.85z" fill="url(#h)"/><path d="m77.53 90.28c-.9-.02-1.78-.39-2.45-1.09l-12.88-13.61c-1.33-1.4-1.27-3.62.13-4.95s3.62-1.27 4.95.13l12.89 13.6c1.33 1.4 1.27 3.62-.13 4.95-.71.67-1.61.99-2.51.97z" fill="url(#i)"/><path d="m89.43 77.67c-.89.06-1.81-.22-2.54-.86l-14.09-12.34c-1.45-1.27-1.6-3.48-.33-4.94 1.27-1.45 3.48-1.6 4.94-.33l14.1 12.34c1.45 1.27 1.6 3.48.33 4.94-.64.73-1.51 1.13-2.41 1.19z" fill="url(#j)"/><path d="m99.53 65.47c-.89.09-1.82-.16-2.56-.78l-14.5-11.88c-1.5-1.23-1.71-3.43-.49-4.93 1.23-1.49 3.43-1.71 4.93-.49l14.49 11.88c1.5 1.23 1.71 3.43.49 4.93-.62.75-1.47 1.18-2.36 1.27z" fill="url(#k)"/><path d="m159.55-106.74c-.31-2.79-2.51-4.99-5.3-5.3-13.8-1.53-50.79.16-73.71 23.08-22.92 22.91-24.62 59.91-23.09 73.7.31 2.79 2.51 4.99 5.3 5.3 13.8 1.53 50.79-.16 73.71-23.08 22.92-22.91 24.62-59.91 23.09-73.7z" fill="url(#l)"/><ellipse cx="108.5" cy="-61" fill="none" opacity=".2" rx="62.38" ry="39.55" transform="matrix(.7071 -.7071 .7071 .7071 74.913 58.854)"/><g clip-path="url(#m)"><path d="m164.82-63.67c-1.94 0-3.78-1.13-4.6-3.03-8.8-20.5-24.79-36.97-45.01-46.37l-2.29-1.07c-2.5-1.16-3.59-4.14-2.42-6.64 1.16-2.5 4.14-3.59 6.64-2.43l2.29 1.07c22.46 10.45 40.21 28.73 49.99 51.49 1.09 2.54-.08 5.48-2.62 6.57-.66.28-1.33.41-1.98.41z" fill="url(#n)"/></g><g clip-path="url(#m)"><path d="m101.15 0c-.64 0-1.3-.12-1.93-.39-23.08-9.65-41.36-27.56-51.48-50.43l-.95-2.16c-1.12-2.53.02-5.48 2.55-6.6 2.52-1.12 5.48.02 6.6 2.55l.95 2.16c9.08 20.52 25.49 36.6 46.2 45.25 2.55 1.07 3.75 3.99 2.68 6.54-.81 1.92-2.67 3.08-4.62 3.08z" fill="url(#o)"/></g><path clip-path="url(#m)" d="m157.17-110.83s-10.75 14.42-47.33 51-53.09 49.41-53.09 49.41" fill="none" stroke="#212121" stroke-miterlimit="10" stroke-width="2"/><path d="m84.17-36.85s12.17-10.48 25.17-23.98 24-24.98 24-24.98" style="fill:none;stroke:#eceff0;stroke-linecap:round;stroke-linejoin:round;stroke-miterlimit:10;stroke-width:6"/><path d="m145.8-109.46c2.98 0 5.78.14 8.11.4 1.4.16 2.49 1.25 2.65 2.65.79 7.14.6 19.41-2.32 32.45-3.62 16.16-10.31 29.22-19.9 38.81-20.98 20.98-53.63 22.61-63.14 22.61-2.98 0-5.78-.14-8.11-.4-1.4-.16-2.49-1.25-2.65-2.65-.79-7.14-.6-19.41 2.32-32.45 3.62-16.16 10.31-29.22 19.9-38.81 20.98-20.98 53.63-22.61 63.14-22.61m0-3c-17.05 0-46.09 4.32-65.26 23.5-22.92 22.91-24.62 59.91-23.09 73.7.31 2.79 2.51 4.99 5.3 5.3 2.25.25 5.12.41 8.44.41 17.05 0 46.09-4.32 65.26-23.5 22.92-22.92 24.62-59.91 23.08-73.71-.31-2.79-2.51-4.99-5.3-5.3-2.24-.24-5.11-.4-8.43-.4z" fill="#434343" opacity=".2"/><path d="m99.87-35.54c-.9 0-1.79-.34-2.48-1.03l-13.24-13.25c-1.37-1.37-1.37-3.58 0-4.95s3.58-1.37 4.95 0l13.25 13.25c1.37 1.37 1.37 3.58 0 4.95-.69.69-1.58 1.03-2.48 1.03z" fill="url(#p)"/><path d="m110.51-46.18c-.9 0-1.79-.34-2.48-1.03l-13.24-13.25c-1.37-1.37-1.37-3.58 0-4.95s3.58-1.37 4.95 0l13.25 13.25c1.37 1.37 1.37 3.58 0 4.95-.69.69-1.58 1.03-2.48 1.03z" fill="url(#q)"/><path d="m121.15-56.82c-.9 0-1.79-.34-2.47-1.03l-13.25-13.25c-1.37-1.37-1.37-3.58 0-4.95s3.58-1.37 4.95 0l13.25 13.25c1.37 1.37 1.37 3.58 0 4.95-.69.69-1.58 1.03-2.48 1.03z" fill="url(#r)"/><path d="m131.79-67.46c-.9 0-1.79-.34-2.47-1.02l-13.25-13.25c-1.37-1.37-1.37-3.58 0-4.95s3.58-1.37 4.95 0l13.25 13.25c1.37 1.37 1.37 3.58 0 4.95-.69.68-1.58 1.02-2.48 1.02z" fill="url(#s)"/><path d="m85.02 7c13.66 0 24.74 3.58 28.64 7.12 2.47 2.24 5.54 9.3 6.06 21.82.73 17.52-4.24 42.42-20.4 59.77-17.38 18.67-44.44 25.29-62.33 25.29-10.67 0-16.85-2.16-19.07-4.18-4.22-3.82-9.03-15.86-9.65-30.62-.49-11.82 1.48-34.65 20.23-54.79 19.79-21.24 43.9-24.41 56.52-24.41m0-3c-18.19 0-40.73 6.06-58.71 25.37-32.28 34.66-20.52 80.5-10.41 89.68 3.41 3.1 11.21 4.96 21.09 4.96 19.39 0 46.77-7.17 64.53-26.25 26.81-28.77 24.27-76.68 14.16-85.85-4.48-4.07-16.19-7.91-30.66-7.91z" fill="#434343" opacity=".2"/></svg>